<svg xmlns="http://www.w3.org/2000/svg" viewBox="0 0 169.89 41.5"><title>アセット 13</title><path d="M14.57,0c3.6,0,7.57.5,10.85,3.41,3.54,3.1,4,7.19,4,10,0,5.21-2,8.13-3.53,9.74-3.29,3.35-7.63,3.66-10.54,3.66H9.55V41.36H0V0Zm-5,19H13c1.3,0,3.59-.07,5.15-1.56a5.77,5.77,0,0,0,1.55-4.09,5.47,5.47,0,0,0-1.55-4C16.68,8,14.63,7.81,12.77,7.81H9.55Z" style="fill:#333"/><path d="M31.36,14l8.59-.2v3.91a6.26,6.26,0,0,1,3.44-2.88,14.45,14.45,0,0,1,5.12-.93,8.6,8.6,0,0,1,3.29.62L50,21.65a7,7,0,0,0-3.62-.83A5.63,5.63,0,0,0,42,22.61c-1.91,2-2.09,4.9-2.09,7.16v10.8H31.36Z" style="fill:#333"/><path d="M77.93,37.17a15.82,15.82,0,0,1-11.38,4.3,15.84,15.84,0,0,1-11.38-4.3,14.5,14.5,0,0,1,0-19.81,15.88,15.88,0,0,1,11.38-4.29,15.86,15.86,0,0,1,11.38,4.29,14.5,14.5,0,0,1,0,19.81ZM61.82,22.26a6.82,6.82,0,0,0-1.92,5,6.83,6.83,0,0,0,1.92,5,6.42,6.42,0,0,0,4.79,1.91,6.33,6.33,0,0,0,4.67-1.91,6.82,6.82,0,0,0,1.92-5,6.82,6.82,0,0,0-1.92-5,6.81,6.81,0,0,0-9.46,0Z" style="fill:#333"/><path d="M93.22.78v32h13.63l.37,7.75H84V.78Z" style="fill:#333"/><path d="M129.27,14h8.4V40.61h-8.4V37.38a8.6,8.6,0,0,1-7.7,4.12,12.18,12.18,0,0,1-9.75-4.06,14.25,14.25,0,0,1-3.79-10,15.37,15.37,0,0,1,4-10.74,12.38,12.38,0,0,1,9-3.64A9.67,9.67,0,0,1,129.27,17Zm-10.68,8.41a6.72,6.72,0,0,0-1.92,4.83A6.91,6.91,0,0,0,118.42,32a6.8,6.8,0,0,0,5,2.09,6.1,6.1,0,0,0,4.37-1.85,6.81,6.81,0,0,0,2.05-5,6.8,6.8,0,0,0-1.93-4.89,7,7,0,0,0-4.67-1.85A6.52,6.52,0,0,0,118.59,22.41Z" style="fill:#333"/><path d="M148.66,0V17a9.61,9.61,0,0,1,8.11-3.88,12.94,12.94,0,0,1,9,3.58,14.39,14.39,0,0,1,4.08,10.5,15.1,15.1,0,0,1-4.08,10.68,11.56,11.56,0,0,1-8.93,3.64c-4.61,0-6.94-2.21-8.22-4.12v3.23h-8.41V0ZM150,22.47a6.93,6.93,0,0,0-1.87,4.89,6.49,6.49,0,0,0,1.93,4.77,7,7,0,0,0,4.78,2,6.36,6.36,0,0,0,4.38-1.85,6.82,6.82,0,0,0,2-4.89,6.94,6.94,0,0,0-2-5.07,6.6,6.6,0,0,0-9.22.18Z" style="fill:#333"/></svg>